/* XPM */
static char * D:\Code42\game\exit1_xpm[] = {
"32 32 167 2",
"  	c #4D9262",
". 	c #3E734E",
"+ 	c #C0CACF",
"@ 	c #7AB055",
"# 	c #949494",
"$ 	c #7E7E7E",
"% 	c #306D30",
"& 	c #757775",
"* 	c #296F29",
"= 	c #616761",
"- 	c #2D6D2D",
"; 	c #737573",
"> 	c #2A6F2A",
", 	c #2A6E2A",
"' 	c #6F7F7F",
") 	c #9BADB7",
"! 	c #A0B7AF",
"~ 	c #939393",
"{ 	c #919191",
"] 	c #929292",
"^ 	c #516256",
"/ 	c #718182",
"( 	c #526158",
"_ 	c #59966D",
": 	c #848484",
"< 	c #8F8F8F",
"[ 	c #8A8A8A",
"} 	c #8D8D8D",
"| 	c #757975",
"1 	c #2B6E2B",
"2 	c #4C664C",
"3 	c #707070",
"4 	c #636363",
"5 	c #646464",
"6 	c #696969",
"7 	c #7B7B7B",
"8 	c #8E8E8E",
"9 	c #316C31",
"0 	c #3D633D",
"a 	c #5A5A5A",
"b 	c #626763",
"c 	c #4F5050",
"d 	c #3C3C3C",
"e 	c #262626",
"f 	c #2D3145",
"g 	c #2A2F45",
"h 	c #363948",
"i 	c #515151",
"j 	c #406040",
"k 	c #656A65",
"l 	c #606960",
"m 	c #6E716E",
"n 	c #B0B7BA",
"o 	c #A3A7A8",
"p 	c #346B35",
"q 	c #525353",
"r 	c #4F4F4F",
"s 	c #020202",
"t 	c #3A4466",
"u 	c #262B44",
"v 	c #4C554C",
"w 	c #6A6D6A",
"x 	c #868886",
"y 	c #326932",
"z 	c #636463",
"A 	c #000000",
"B 	c #272D46",
"C 	c #3A3C49",
"D 	c #6D6D6E",
"E 	c #878887",
"F 	c #567561",
"G 	c #475648",
"H 	c #808080",
"I 	c #0B0E1A",
"J 	c #FFFFFF",
"K 	c #43444B",
"L 	c #79858B",
"M 	c #455445",
"N 	c #727472",
"O 	c #666C66",
"P 	c #868686",
"Q 	c #949495",
"R 	c #676767",
"S 	c #22273E",
"T 	c #3A4465",
"U 	c #374061",
"V 	c #141414",
"W 	c #4D4D4D",
"X 	c #6F6F6F",
"Y 	c #646A64",
"Z 	c #7A7A7A",
"` 	c #8D8E8F",
" .	c #959798",
"..	c #949596",
"+.	c #8A8B8B",
"@.	c #8F9091",
"#.	c #505050",
"$.	c #43495E",
"%.	c #585858",
"&.	c #797979",
"*.	c #7C7C7C",
"=.	c #7C7F7D",
"-.	c #828486",
";.	c #90989D",
">.	c #969BA0",
",.	c #929394",
"'.	c #8F9090",
").	c #212121",
"!.	c #3F2832",
"~.	c #3C4565",
"{.	c #6E6E6E",
"].	c #748378",
"^.	c #808182",
"/.	c #98A3AA",
"(.	c #949697",
"_.	c #8A8B8C",
":.	c #49494D",
"<.	c #666666",
"[.	c #547D5F",
"}.	c #818385",
"|.	c #9AA9B2",
"1.	c #94999D",
"2.	c #666667",
"3.	c #4E4E4E",
"4.	c #4C4C4C",
"5.	c #010101",
"6.	c #463A3F",
"7.	c #59645C",
"8.	c #4F8D61",
"9.	c #5B5B5B",
"0.	c #7F8081",
"a.	c #969DA1",
"b.	c #95A6B0",
"c.	c #86959D",
"d.	c #898E92",
"e.	c #939495",
"f.	c #525252",
"g.	c #423239",
"h.	c #55765E",
"i.	c #4E8F62",
"j.	c #5E5E5F",
"k.	c #777A7C",
"l.	c #717273",
"m.	c #787879",
"n.	c #4A4A4A",
"o.	c #282828",
"p.	c #528460",
"q.	c #686868",
"r.	c #434343",
"s.	c #6A6A6A",
"t.	c #4E8E61",
"u.	c #595959",
"v.	c #535353",
"w.	c #545454",
"x.	c #3B3B3B",
"y.	c #473D41",
"z.	c #333333",
"A.	c #494B56",
"B.	c #3D3D3D",
"C.	c #464646",
"D.	c #5D5C5C",
"E.	c #4D9162",
"F.	c #4D875E",
"G.	c #4E6955",
"H.	c #4E504F",
"I.	c #505250",
"J.	c #585B59",
"                                                                ",
"                                            .                   ",
"                                          .   .                 ",
"                                            .                   ",
"                                + + +                           ",
"                        + + + + + + + + + + + + +               ",
"                        + + + + + + + + + + + + +               ",
"                    + + + + + + + + + + + + + + +               ",
"            @     + + + + # # # # + + + + + $ # # #             ",
"            @ + + # # # # # # # # # # # # # $ % & # # #         ",
"            @ + + # # # # # # # # # # # # # $ * & # # #         ",
"            @ + + # # # # # # # # # # # # # & * $ $ # # #       ",
"            + # # # # # # # # # # # # # # $ = * $ $ $ $ #       ",
"            + # # # # # # # # # # # # # # $ - * ; $ $ $ #       ",
"      + + + + + + # # > # # # # # # # # # $ , * ' ) $ $ $       ",
"@   ! + + + + + + + + * # # # ~ ~ { ] # # ; * ^ / ( ) ) #       ",
"  @ _ + + + + + + + + * $ : $ ] < ] ] [ } * , | 1 1 $ $ $     @ ",
"@     + + + + + + + + > 2 3 4 5 5 6 7 8 9 0 a # 1 * $ $ $       ",
"      + + + # # # + + * b c d e f g h i j a k 8 l * m $ )       ",
"  ) ) # # # $ + n o # p q r s t u u u t d v 8 w x y / ) )       ",
"  # # # # # $ # # # ~ z r r A u u B t t t C D E F G | # )       ",
"  # # # # # $ # # # 8 H r r A A u I A J A u K L M N O $ $ $     ",
"  # # # # # P # # Q P R r A S t T U A A t t V W X Y Z $ $ $     ",
"  # # # # # `  ...+.@.#.r s A A t t t t t u u $.%.&.*.$ $ =.    ",
"  $ $ # # -.;.>.,.'...r i ).A !.t t !.!.t t u ~.#.{.$ $ $ ].    ",
"  $ $ $ ^.) ) /.(..._.r r r A A A A A !.!.u t t :.<.$ $ $ [.    ",
"  $ $ $ }.) ) |.1...2.r #.3.4.5.u A !.!.u t u A 6.<.$ $ 7.8.    ",
"  9.9.$ 0.a.b.c.d.e.f.r r 4.4.4.A u !.t u u !.A g.4 $ $ h.      ",
"  i.  9.9.j.k.l...m.r r 3.4.n.4.A !.A t A !.t A o.R $ 9.p.      ",
"      9.9.%.q.....2.r r 3.W W 4.4.A !.A A t !.A r.s.9.9.t.      ",
"    t.    u.v.r 3.w.3.3.3.3.3.3.W x.y.z.x.A.B.C.D.9.9.7.        ",
"        8.E.F.G.H.3.3.3.3.3.3.3.3.3.3.3.3.3.3.I.J.9.9.          "};
