/* XPM */
static char * D:\Code42\game\exit_xpm[] = {
"32 32 73 1",
" 	c #4D9262",
".	c #3E734E",
"+	c #C0CACF",
"@	c #949494",
"#	c #7E7E7E",
"$	c #7AB055",
"%	c #535E53",
"&	c #757775",
"*	c #616761",
"=	c #4B584B",
"-	c #455545",
";	c #445444",
">	c #737573",
",	c #475748",
"'	c #6F7F7F",
")	c #9BADB7",
"!	c #526158",
"~	c #718182",
"{	c #495549",
"]	c #757975",
"^	c #495E4F",
"/	c #555B55",
"(	c #8C8B8D",
"_	c #5B5B5B",
":	c #4B6254",
"<	c #4A554A",
"[	c #606960",
"}	c #6E716E",
"|	c #545454",
"1	c #505050",
"2	c #525252",
"3	c #515151",
"4	c #595959",
"5	c #445344",
"6	c #535853",
"7	c #586158",
"8	c #898A89",
"9	c #767876",
"0	c #4D4D4D",
"a	c #4C4C4C",
"b	c #364C36",
"c	c #414F41",
"d	c #8F9FA8",
"e	c #373737",
"f	c #2B2B2B",
"g	c #1D1D1D",
"h	c #1F1F1F",
"i	c #666C66",
"j	c #000000",
"k	c #373637",
"l	c #131313",
"m	c #222222",
"n	c #090909",
"o	c #565857",
"p	c #F2F2F2",
"q	c #B1B1B1",
"r	c #FDFDFD",
"s	c #BEBEBE",
"t	c #181818",
"u	c #282828",
"v	c #9B9B9B",
"w	c #676667",
"x	c #4F4F4F",
"y	c #232424",
"z	c #363636",
"A	c #080808",
"B	c #151515",
"C	c #191A1A",
"D	c #232323",
"E	c #252326",
"F	c #2A2F32",
"G	c #767677",
"H	c #585858",
"                                ",
"                      .         ",
"                     . .        ",
"                +++   .         ",
"            +++++++++++++       ",
"            +++++++++++++       ",
"          +++++++++++++++       ",
"         ++++@@@@+++++#@@@      ",
"      $++@@@@@@@@@@@@@#%&@@@    ",
"      $++@@@@@@@@@@@@@#%&@@@    ",
"      $++@@@@@@@@@@@@@&%##@@@   ",
"      +@@@@@@@@@@@@@@#*=####@   ",
"      +@@@@@@@@@@@@@@#-;>###@   ",
"   ++++++@@;@@@@@@@@@#;,')###   ",
"   ++++++++;@@@#@@@@@>;!~!))@   ",
"$  ++++++++;####@@@@@;{];;###   ",
" $ ++++++++^/###@@@(#;_@;;###  $",
"$  +++@@@++;:))#____<;/@[;}#)   ",
" ))@@@#+++@;_)_|1234567@8-~))   ",
" @@@@@#@@@;9;@0aaaaabcd));]@)   ",
" @@@@@#@@@_@;|aaaefgh;####i###  ",
" @@@@@#@@@@@_0aajkglmn_#@#####  ",
" @@@@@#@@@@@oaa0pq_rstu_@#####  ",
" ##@@####@@@0aaav#_##jm_@@####  ",
" ####))###@@waaaxgjyzjA_@####_  ",
" ####))###@#aaaaaBCmDm___####_  ",
" __##@)))##2aaa#@EFjjx_wG###__  ",
"   ___@####0aa@@@@@@@@___#___   ",
"   ___@####Ha#@@@@@@@@___#___   ",
"     _______________________    ",
"         ______________         ",
"             $                  "};
