/* XPM */
static char * D:\Code42\game\wall_xpm[] = {
"32 32 7 1",
" 	c #4D9262",
".	c #3E734E",
"+	c #7AB055",
"@	c #9BADB7",
"#	c #847E87",
"$	c #696A6A",
"%	c #484848",
"                                ",
"                      .         ",
"                     . .        ",
"                      .         ",
"                                ",
"                                ",
"                 +              ",
"                 ++             ",
"      +         @@+  +          ",
"      +      @@@@@@@@@@         ",
"      + +   @@@@@@@@@@@         ",
"      + +  @@@###@@@@$##        ",
"        + @##########$$##       ",
"          @##########$$$##      ",
"         @##########$$$$$#      ",
"+      @@@@#########$$@@$$      ",
" +    @@@@@@@##$####$$@@@#     +",
"+     @@@@@@@$$$####$$##$$      ",
"      @@@##@@@@$###$$$##$@      ",
"     @###$@@@$@@$@#$$$##@@      ",
"     ####$###$#@@$#$$@@@#@      ",
"     ####$###$##$$####$$$$$     ",
"     ####$######$######$$$$     ",
"     $##$$$######$######$$$     ",
"     $$$@@$$#####$@@@##$$$%     ",
"     %$$#@@$$####@@##$#$$%%     ",
"      %%%#$$$###@##$$$$$%%      ",
"        %%%%%$$$$$$$%%%%%       ",
"           %%%%%%%%%%%          ",
"             +                  ",
"            + +                 ",
"             +                  "};
