/* XPM */
static char * D:\Code42\game\wall1_xpm[] = {
"32 32 9 1",
" 	c #4D9262",
".	c #3E734E",
"+	c #7AB055",
"@	c #336141",
"#	c #407C52",
"$	c #663931",
"%	c #45283C",
"&	c #437D51",
"*	c #47885A",
"                                ",
"             ......   .         ",
"            .++++++. . .        ",
"           .++++++++. .         ",
"          .+++++++++ .          ",
"          .++++++++ ..          ",
"         . ++++     ...         ",
"        .+       .... ..        ",
"      + .++           ..        ",
"      + . ++++++++++  ...       ",
"      +.  +++++++++  .....      ",
"      .++   +++++   ......      ",
"      .+++       ....   ..      ",
"      .++++              ..     ",
"      . +++++       +++  ..     ",
"+     . ++++++   +++++++ ..     ",
" +   .+. ++++++++++++++ ....   +",
"+    .++.     ++++++   .  ..    ",
"     . ++ ....     ....   ..    ",
"     .  ++    ......     ..     ",
"      .    +++++++++++  ...     ",
"       . ..          .....      ",
"        .................       ",
"          @#.........##         ",
"         ###$%$$$$%##### +      ",
"        ####%%$$$$%$#####+      ",
"        ######$$$%%%$####+      ",
"        #####$$$%%%######       ",
"        #####$%%%%%$#####       ",
"         ####$#####%####        ",
"          ##&##########         ",
"            *#######            "};
