/* XPM */
static char * D:\Code42\game\collect_xpm[] = {
"32 32 79 1",
" 	c #000000",
".	c #3E734E",
"+	c #7AB055",
"@	c #FEF1E4",
"#	c #BBAD9C",
"$	c #F9EBDC",
"%	c #A37B69",
"&	c #B08C84",
"*	c #A98781",
"=	c #C9A697",
"-	c #B79288",
";	c #BD978B",
">	c #B28E85",
",	c #871600",
"'	c #F57403",
")	c #F27006",
"!	c #EE6B0A",
"~	c #EA670E",
"{	c #B89388",
"]	c #AD8A82",
"^	c #F17006",
"/	c #ED6A0B",
"(	c #E96610",
"_	c #E56114",
":	c #E05D19",
"<	c #DC571E",
"[	c #774B4B",
"}	c #F06E06",
"|	c #E96510",
"1	c #E46114",
"2	c #E05C19",
"3	c #D75222",
"4	c #892D0B",
"5	c #F47304",
"6	c #F06E08",
"7	c #EC690C",
"8	c #E86411",
"9	c #E46016",
"0	c #DF5C1A",
"a	c #DB561F",
"b	c #D65123",
"c	c #D24D27",
"d	c #862B0C",
"e	c #862A0D",
"f	c #FFFFFF",
"g	c #F37205",
"h	c #EF6D08",
"i	c #EC680C",
"j	c #E76411",
"k	c #E35F16",
"l	c #DE5B1A",
"m	c #DA551F",
"n	c #D14C28",
"o	c #CD472C",
"p	c #BC2500",
"q	c #E66312",
"r	c #E25F17",
"s	c #DE5A1B",
"t	c #D95420",
"u	c #D55024",
"v	c #D04C29",
"w	c #D45024",
"x	c #D04B29",
"y	c #683B35",
"z	c #D3C6C7",
"A	c #892002",
"B	c #7F4B2E",
"C	c #663533",
"D	c #67383C",
"E	c #E4E0DD",
"F	c #B1A69B",
"G	c #657C52",
"H	c #8C2500",
"I	c #745652",
"J	c #5E2C30",
"K	c #651A00",
"L	c #741E02",
"M	c #851600",
"N	c #ECE7E4",
"                                ",
"                      .         ",
"                     . .        ",
"                      .         ",
"                                ",
"                                ",
"                 +      @@      ",
"                 ++     @@ @@   ",
"      +          ++  +  @@@#@   ",
"      +           +.++ @$%&**   ",
"      + +         .++.@=-       ",
"      + +          .@@;>        ",
"        ,'''''''')!~,{]         ",
"       ''''''''^/(_:<[          ",
"      '''''''}/|12<34           ",
"+    '''''567890abcde           ",
" +  ffffghijklmbnoee           +",
"+  fppppfqrstuvooee             ",
"   fpppppftwxoooeee             ",
"   fppppppfoooooee              ",
"   fpppyzppfooooeA              ",
"   BppCDEFppfeeeG               ",
"    fHfIJFKHfee                 ",
"     fHfFKKKfeL                 ",
"      fHHKKKeM           +      ",
"        ffNf           + +      ",
"                       + +      ",
"                       +        ",
"                                ",
"             +                  ",
"            + +                 ",
"             +                  "};
