/* XPM */
static char * D:\Code42\game\wolf6_xpm[] = {
"32 32 8 1",
" 	c #4D9262",
".	c #3E734E",
"+	c #000000",
"@	c #5A6988",
"#	c #8B9BB4",
"$	c #7AB055",
"%	c #FFFFFF",
"&	c #C0CBDC",
"                                ",
"                      .         ",
"                  ++++ .    ++++",
"                  ++++.     ++++",
"                ++@@++++++++@@++",
"                ++@@++++++++@@++",
"              ++##++++@@@@@@++++",
"              ++##++++@@@@@@++++",
"      $     ++@@##++##@@@@@@##++",
"      $     ++@@##++##@@@@@@##++",
"      $ $   ++@@@@######++@@@@++",
"      $ $   ++@@@@######++@@@@++",
"        $ ++++@@@@++%%++++@@++++",
"          ++++@@@@++%%++++@@++++",
"    ++++++@@++++%%%%++++######@@",
"$   ++++++@@++++%%%%++++######@@",
" $++@@++@@@@##@@@@%%%%%%%%%%++++",
"$ ++@@++@@@@##@@@@%%%%%%%%%%++++",
"++##@@##@@####@@%%%%&&&&%%%%&&++",
"++##@@##@@####@@%%%%&&&&%%%%&&++",
"##@@####&&@@####@@&&&&++++++++++",
"##@@####&&@@####@@&&&&++++++++++",
"##++##@@&&&&++@@##@@&&&&++@@++  ",
"##++##@@&&&&++@@##@@&&&&++@@++  ",
"@@++++%%++&&++&&@@@@%%&&@@++    ",
"@@++++%%++&&++&&@@@@%%&&@@++    ",
"@@++&&%%++++++%%&&++%%++&&++    ",
"@@++&&%%++++++%%&&++%%++&&++    ",
"++++&&&&++++++&&%%++++&&++      ",
"++++&&&&++++++&&%%++++&&++      ",
"  ++&&++++&&++++%%++++&&++      ",
"  ++&&++++&&++++%%++++&&++      "};
